<svg width="44" height="50" viewBox="0 0 44 50" fill="none" xmlns="http://www.w3.org/2000/svg">
<path d="M40.6 16.5L41.8 18.1L43.4 16.9L39.9 12L38.3 13.2L39.5 14.8L37.7 16.1C34.4 11.9 29.6 8.9 24.1 8.1V6H27.1V0H15V6H18V8.2C9.8 9.4 3.1 15.3 0.9 23C0.9 23.1 0.8 23.2 0.8 23.2L0.7 23.7V23.9L0.6 24.4C0.5 24.9 0.8 25.5 1.4 25.6C1.9 25.7 2.5 25.4 2.6 24.9L2.8 23.9C5 15.8 12.4 9.9 21.1 9.9C31.6 9.9 40.1 18.4 40.1 28.9C40.1 39.4 31.6 47.9 21.1 47.9C12.3 47.9 5 42 2.8 33.9L2.5 32.8C2.4 32.3 1.8 31.9 1.3 32.1C0.8 32.2 0.4 32.8 0.5 33.3L0.6 33.9C0.6 34 0.7 34.1 0.7 34.2L0.8 34.5C0.8 34.6 0.8 34.6 0.9 34.7C3.3 43.6 11.4 50 21 50C32.6 50 42 40.6 42 29C42 24.9 40.8 21.1 38.8 17.8L40.6 16.5ZM17 4V2H25V4H17ZM20 8V6H22V8.1C21.7 8.1 21.3 8 21 8H20ZM0 29C0 29.2652 0.105357 29.5196 0.292893 29.7071C0.48043 29.8946 0.734784 30 1 30C1.26522 30 1.51957 29.8946 1.70711 29.7071C1.89464 29.5196 2 29.2652 2 29C2 28.7348 1.89464 28.4804 1.70711 28.2929C1.51957 28.1054 1.26522 28 1 28C0.734784 28 0.48043 28.1054 0.292893 28.2929C0.105357 28.4804 0 28.7348 0 29ZM26.5 14C18.2 11 9 15.3 6 23.6C3 31.9 7.2 41 15.5 44C23.8 47 33 42.7 36 34.4C37.2 31.2 37.2 27.9 36.5 24.9V24.6C36.4 24.2 36.3 23.8 36.1 23.4L35.9 22.8C35.7 22.3 35.2 22 34.6 22.1C34.1 22.3 33.8 22.8 34 23.4L34.6 25.1C35.4 27.8 35.3 30.8 34.3 33.6C31.7 40.9 23.6 44.6 16.4 42C9.1 39.4 5.4 31.3 8 24.1C10.6 16.8 18.7 13.1 25.9 15.7C27.4 16.2 28.7 17 29.8 17.9L30.9 18.9C31.3 19.3 31.9 19.2 32.3 18.8C32.7 18.4 32.6 17.8 32.2 17.4L32 17.2C30.4 15.9 28.6 14.7 26.5 14ZM25.5 23.8C24.3 23.8 23.4 24.2 22.9 25.1C22.3 25.9 22 27.2 22 29C22 30.7 22.3 32 22.9 32.8C23.5 33.7 24.4 34.1 25.5 34.1C26.7 34.1 27.6 33.7 28.1 32.8C28.7 32 29 30.7 29 29C29 27.3 28.7 26 28.1 25.2C27.5 24.4 26.6 23.8 25.5 23.8ZM26.6 31.6C26.4 32.1 26 32.4 25.5 32.4C25 32.4 24.6 32.1 24.4 31.6C24.2 31.1 24.1 30.2 24.1 29C24.1 27.8 24.2 26.9 24.4 26.4C24.6 25.9 25 25.6 25.5 25.6C26 25.6 26.3 25.9 26.6 26.4C26.8 26.9 26.9 27.8 26.9 29C26.9 30.2 26.8 31.1 26.6 31.6ZM17.4 25.9C17.9 25.7 18.4 25.6 19.2 25.6C19.6 25.6 20 25.6 20.4 25.7V24C20.1 23.9 19.6 23.9 19.1 23.9C17.4 23.9 16.2 24.4 15.3 25.3C14.5 26.3 14 27.7 14 29.7C14 30.6 14.1 31.4 14.4 32.1C14.7 32.8 15.1 33.3 15.7 33.6C16.3 33.9 16.9 34.1 17.6 34.1C18.7 34.1 19.5 33.8 20.1 33.2C20.7 32.6 21 31.7 21 30.7C21 29.7 20.7 28.9 20.2 28.4C19.7 27.9 19 27.6 18.1 27.6C17.1 27.6 16.4 28 15.9 28.8H15.8C15.8 28 16 27.4 16.2 27C16.6 26.4 16.9 26.1 17.4 25.9ZM16.6 29.5C16.9 29.2 17.3 29.1 17.7 29.1C18.2 29.1 18.5 29.2 18.7 29.5C18.9 29.8 19 30.2 19 30.7C19 31.3 18.9 31.7 18.6 32C18.4 32.3 18 32.5 17.6 32.5C17.2 32.5 16.8 32.3 16.5 31.9C16.2 31.5 16.1 31.1 16.1 30.5C16.1 30.1 16.3 29.8 16.6 29.5Z" fill="black"/>
</svg>
