<svg width="40" height="50" viewBox="0 0 40 50" fill="none" xmlns="http://www.w3.org/2000/svg">
<path d="M33.9609 31.5747L34.6629 31.4307C35.4378 31.2702 36.1185 30.8114 36.5582 30.1535C36.9978 29.4955 37.1612 28.691 37.0129 27.9137L36.6559 26.0567L38.2209 24.9967C38.8752 24.5518 39.3284 23.8676 39.4827 23.0916C39.6371 22.3156 39.4802 21.5101 39.0459 20.8487L38.0059 19.2707L39.0459 17.6907C39.4799 17.0294 39.6366 16.2241 39.4822 15.4483C39.3279 14.6726 38.8749 13.9886 38.2209 13.5437L36.6559 12.4837L37.0129 10.6267C37.1609 9.84952 36.9974 9.04534 36.5578 8.38759C36.1182 7.72985 35.4376 7.27125 34.6629 7.11071L32.8109 6.72971L32.4309 4.87771C32.2704 4.10282 31.8117 3.42212 31.1537 2.98248C30.4957 2.54283 29.6913 2.37949 28.9139 2.52771L27.0569 2.88571L25.997 1.31971C25.5521 0.665443 24.8678 0.212268 24.0919 0.0579317C23.3159 -0.096405 22.5103 0.060465 21.8489 0.494705L20.2709 1.53471L18.6909 0.494705C18.0297 0.0605184 17.2243 -0.0963237 16.4485 0.0580176C15.6727 0.212359 14.9886 0.665511 14.5439 1.31971L13.4839 2.88571L11.6269 2.52771C10.8497 2.37951 10.0454 2.54288 9.38761 2.98254C8.7298 3.42221 8.27126 4.1029 8.11095 4.87771L7.72995 6.72971L5.87795 7.10971C5.10307 7.27024 4.42236 7.72899 3.98272 8.38696C3.54307 9.04493 3.37973 9.84937 3.52795 10.6267L3.88595 12.4837L2.31995 13.5437C1.66569 13.9886 1.21251 14.6728 1.05817 15.4488C0.903837 16.2248 1.06071 17.0303 1.49495 17.6917L2.53495 19.2707L1.49495 20.8487C1.06071 21.5101 0.903837 22.3156 1.05817 23.0916C1.21251 23.8676 1.66569 24.5518 2.31995 24.9967L3.88595 26.0567L3.52795 27.9137C3.37973 28.691 3.54307 29.4955 3.98272 30.1535C4.42236 30.8114 5.10307 31.2702 5.87795 31.4307L7.72995 31.8107L8.10995 33.6627C8.27025 34.4377 8.72894 35.1186 9.38698 35.5583C10.045 35.998 10.8496 36.1612 11.6269 36.0127L13.4839 35.6557L14.5129 37.1747L9.88895 47.5587C9.66595 48.0587 9.23295 48.0897 8.92595 47.6357L7.40795 45.3837C7.22905 45.147 6.99301 44.9595 6.72193 44.8388C6.45085 44.7182 6.15358 44.6682 5.85795 44.6937L3.16795 45.0717C2.62095 45.1487 2.36295 44.7947 2.58095 44.3047L4.74495 39.4447L4.74995 39.4327L6.38495 35.7617C6.49289 35.5194 6.50017 35.2442 6.40518 34.9966C6.3102 34.7489 6.12072 34.5492 5.87845 34.4412C5.63617 34.3333 5.36094 34.326 5.1133 34.421C4.86566 34.516 4.66589 34.7054 4.55795 34.9477L3.86795 36.4957L0.753948 43.4917C0.546244 43.9069 0.458752 44.3719 0.50135 44.8342C0.543949 45.2965 0.714942 45.7377 0.995022 46.1079C1.2751 46.4782 1.65311 46.7627 2.08638 46.9295C2.51964 47.0963 2.9909 47.1386 3.44695 47.0517L5.88895 46.7087L7.26895 48.7537C7.50894 49.1516 7.85559 49.4742 8.2696 49.6851C8.68361 49.8961 9.14843 49.9868 9.61136 49.947C10.0743 49.9072 10.5168 49.7386 10.8888 49.4602C11.2608 49.1817 11.5473 48.8047 11.7159 48.3717L16.1579 38.3957C16.5799 38.5283 17.0261 38.5657 17.4642 38.5052C17.9024 38.4446 18.3217 38.2877 18.6919 38.0457L20.2709 37.0057L21.8489 38.0457C22.4572 38.4433 23.1897 38.6054 23.9089 38.5017L28.3039 48.3717C28.4725 48.8049 28.759 49.1822 29.1311 49.4609C29.5031 49.7395 29.9459 49.9082 30.409 49.948C30.8721 49.9878 31.3371 49.897 31.7512 49.6859C32.1654 49.4748 32.512 49.1518 32.7519 48.7537L34.1319 46.7087L36.5739 47.0517C37.03 47.1386 37.5013 47.0963 37.9345 46.9295C38.3678 46.7627 38.7458 46.4782 39.0259 46.1079C39.306 45.7377 39.4769 45.2965 39.5195 44.8342C39.5621 44.3719 39.4746 43.9069 39.2669 43.4917L33.9609 31.5747ZM21.1029 35.1587C20.8506 35.0104 20.5632 34.9322 20.2704 34.9322C19.9777 34.9322 19.6903 35.0104 19.4379 35.1587L17.5909 36.3757C17.3689 36.5204 17.0992 36.5725 16.8393 36.5209C16.5793 36.4693 16.3499 36.3182 16.1999 36.0997L14.9599 34.2687C14.7836 34.0352 14.548 33.853 14.2776 33.741C14.0072 33.629 13.7118 33.5913 13.4219 33.6317L11.2489 34.0497C10.9883 34.0985 10.7189 34.0434 10.4984 33.8961C10.2779 33.7489 10.1237 33.5212 10.0689 33.2617L9.62395 31.0947C9.55044 30.8116 9.40269 30.5533 9.19595 30.3463C8.98922 30.1394 8.73099 29.9915 8.44795 29.9177L6.27995 29.4717C6.0207 29.4169 5.79314 29.2629 5.6459 29.0426C5.49866 28.8223 5.44341 28.5532 5.49195 28.2927L5.90995 26.1207C5.95037 25.8308 5.91264 25.5355 5.80065 25.2651C5.68866 24.9947 5.50648 24.7591 5.27295 24.5827L3.44195 23.3427C3.22304 23.1929 3.07147 22.9633 3.0197 22.7032C2.96793 22.443 3.02007 22.1729 3.16495 21.9507L4.38195 20.1037C4.53027 19.8513 4.60848 19.5639 4.60848 19.2712C4.60848 18.9785 4.53027 18.6911 4.38195 18.4387L3.16495 16.5917C3.02012 16.3697 2.96801 16.0997 3.01979 15.8397C3.07157 15.5797 3.22311 15.3503 3.44195 15.2007L5.27295 13.9607C5.50648 13.7843 5.68866 13.5487 5.80065 13.2784C5.91264 13.008 5.95037 12.7126 5.90995 12.4227L5.49195 10.2497C5.44312 9.98906 5.49824 9.71966 5.6455 9.49914C5.79277 9.27861 6.02049 9.12448 6.27995 9.06971L8.44795 8.62471C8.73099 8.55096 8.98922 8.40298 9.19595 8.19607C9.40269 7.98916 9.55044 7.73081 9.62395 7.44771L10.0699 5.28071C10.1247 5.02125 10.2789 4.79353 10.4994 4.64626C10.7199 4.499 10.9893 4.44388 11.2499 4.49271L13.4219 4.91071C13.7117 4.95095 14.0068 4.91312 14.277 4.80114C14.5472 4.68916 14.7826 4.50708 14.9589 4.27371L16.1999 2.44171C16.3497 2.22307 16.5791 2.0717 16.839 2.01994C17.099 1.96818 17.3688 2.02013 17.5909 2.16471L19.4379 3.38171C19.6903 3.53003 19.9777 3.60823 20.2704 3.60823C20.5632 3.60823 20.8506 3.53003 21.1029 3.38171L22.9499 2.16471C23.1721 2.02013 23.4419 1.96818 23.7019 2.01994C23.9618 2.0717 24.1912 2.22307 24.3409 2.44171L25.5809 4.27271C25.7574 4.5064 25.9932 4.68869 26.2637 4.80068C26.5343 4.91268 26.8299 4.95032 27.1199 4.90971L29.2919 4.49171C29.5526 4.44288 29.822 4.498 30.0425 4.64526C30.263 4.79253 30.4172 5.02025 30.4719 5.27971L30.9169 7.44671C30.9905 7.72993 31.1384 7.98836 31.3454 8.19529C31.5523 8.40221 31.8107 8.55011 32.094 8.6237L34.2609 9.06971C34.5204 9.12448 34.7481 9.27861 34.8954 9.49914C35.0427 9.71966 35.0978 9.98906 35.0489 10.2497L34.6309 12.4217C34.5907 12.7114 34.6285 13.0066 34.7405 13.2768C34.8525 13.547 35.0346 13.7824 35.2679 13.9587L37.0989 15.1997C37.3176 15.3495 37.469 15.5789 37.5207 15.8388C37.5725 16.0987 37.5205 16.3686 37.3759 16.5907L36.1589 18.4377C36.0106 18.6901 35.9324 18.9775 35.9324 19.2702C35.9324 19.5629 36.0106 19.8503 36.1589 20.1027L37.3759 21.9497C37.5208 22.1718 37.5729 22.4417 37.5211 22.7017C37.4693 22.9617 37.3178 23.1911 37.0989 23.3407L35.2679 24.5807C35.0343 24.7572 34.852 24.9929 34.74 25.2635C34.628 25.5341 34.5903 25.8297 34.6309 26.1197L35.0489 28.2917C35.0978 28.5523 35.0427 28.8217 34.8954 29.0423C34.7481 29.2628 34.5204 29.4169 34.2609 29.4717L32.094 29.9167C31.8107 29.9903 31.5523 30.1382 31.3454 30.3451C31.1384 30.552 30.9905 30.8105 30.9169 31.0937L30.4709 33.2607C30.4162 33.52 30.2622 33.7475 30.0419 33.8947C29.8216 34.042 29.5524 34.0972 29.2919 34.0487L27.1199 33.6307C26.8301 33.5903 26.5347 33.628 26.2643 33.74C25.9939 33.852 25.7583 34.0342 25.5819 34.2677L24.3419 36.0987C24.1921 36.3176 23.9626 36.4692 23.7024 36.521C23.4422 36.5727 23.1722 36.5206 22.9499 36.3757L21.1029 35.1587ZM36.8529 45.0717L34.1629 44.6927C33.8673 44.6672 33.57 44.7172 33.299 44.8378C33.0279 44.9585 32.7918 45.146 32.6129 45.3827L31.0929 47.6357C30.7879 48.0897 30.3539 48.0587 30.1309 47.5587L25.691 37.5867C25.8026 37.4731 25.9049 37.3507 25.997 37.2207L27.0569 35.6557L28.9139 36.0127C29.6913 36.1609 30.4957 35.9976 31.1537 35.5579C31.8117 35.1183 32.2704 34.4376 32.4309 33.6627L32.5159 33.2467L37.4399 44.3047C37.6579 44.7947 37.4009 45.1487 36.8529 45.0717ZM28.9339 14.2557C28.9339 14.5209 29.0393 14.7753 29.2268 14.9628C29.4144 15.1503 29.6687 15.2557 29.9339 15.2557C30.1992 15.2557 30.4535 15.1503 30.6411 14.9628C30.8286 14.7753 30.9339 14.5209 30.9339 14.2557C30.9339 13.9905 30.8286 13.7361 30.6411 13.5486C30.4535 13.3611 30.1992 13.2557 29.9339 13.2557C29.6687 13.2557 29.4144 13.3611 29.2268 13.5486C29.0393 13.7361 28.9339 13.9905 28.9339 14.2557ZM31.9999 19.0007V17.9997C31.9999 17.7345 31.8946 17.4801 31.7071 17.2926C31.5195 17.1051 31.2652 16.9997 30.9999 16.9997C30.7347 16.9997 30.4804 17.1051 30.2928 17.2926C30.1053 17.4801 29.9999 17.7345 29.9999 17.9997V19.0017C30.0001 19.0529 30.0041 19.1041 30.0119 19.1547L29.9989 19.1627C29.9621 21.4312 29.155 23.6198 27.71 25.369C26.2651 27.1182 24.2683 28.324 22.0476 28.7885C19.8268 29.253 17.5142 28.9485 15.4893 27.9251C13.4644 26.9016 11.8478 25.2201 10.9049 23.1565C9.96191 21.0929 9.74871 18.77 10.3003 16.5693C10.8518 14.3685 12.1354 12.4208 13.9401 11.0458C15.7448 9.6709 17.9634 8.95053 20.2316 9.00302C22.4998 9.05551 24.6828 9.87775 26.4219 11.3347L26.4229 11.3337L27.0479 11.9157C27.242 12.0966 27.4999 12.193 27.765 12.1837C28.03 12.1744 28.2806 12.0602 28.4614 11.8662C28.6423 11.6722 28.7387 11.4143 28.7294 11.1492C28.7202 10.8841 28.606 10.6336 28.4119 10.4527L28.2349 10.2877L28.2449 10.2817C28.0943 10.139 27.9396 10.0004 27.7809 9.8657L27.6789 9.76971C27.6295 9.72343 27.5756 9.68223 27.518 9.6467C25.3976 7.94234 22.761 7.00904 20.0406 6.99983C17.3201 6.99063 14.6773 7.90607 12.5454 9.59604C10.4136 11.286 8.91919 13.6502 8.30736 16.301C7.69554 18.9517 8.00256 21.7317 9.1781 24.1851C10.3536 26.6384 12.3279 28.6196 14.7772 29.8036C17.2265 30.9876 20.0054 31.3043 22.6582 30.7016C25.3111 30.099 27.6805 28.6128 29.3778 26.4868C31.0752 24.3608 31.9997 21.7212 31.9999 19.0007Z" fill="black"/>
</svg>
