<svg width="46" height="40" viewBox="0 0 46 40" fill="none" xmlns="http://www.w3.org/2000/svg">
<path d="M14.5 6.00023C14.6307 6.00116 14.7604 5.97625 14.8815 5.92695C15.0026 5.87765 15.1127 5.80492 15.2056 5.71294C15.2985 5.62095 15.3724 5.51153 15.4229 5.39094C15.4734 5.27035 15.4996 5.14098 15.5 5.01023V0.990234C15.5 0.725018 15.3946 0.470664 15.2071 0.283128C15.0196 0.0955914 14.7652 -0.00976562 14.5 -0.00976562C14.2348 -0.00976562 13.9804 0.0955914 13.7929 0.283128C13.6054 0.470664 13.5 0.725018 13.5 0.990234V5.01023C13.5026 5.27371 13.6092 5.52551 13.7964 5.71089C13.9837 5.89627 14.2365 6.00025 14.5 6.00023ZM18.5 4.00023H28.5C28.7652 4.00023 29.0196 3.89488 29.2071 3.70734C29.3946 3.5198 29.5 3.26545 29.5 3.00023C29.5 2.73502 29.3946 2.48066 29.2071 2.29313C29.0196 2.10559 28.7652 2.00023 28.5 2.00023H18.5C18.2348 2.00023 17.9804 2.10559 17.7929 2.29313C17.6054 2.48066 17.5 2.73502 17.5 3.00023C17.5 3.26545 17.6054 3.5198 17.7929 3.70734C17.9804 3.89488 18.2348 4.00023 18.5 4.00023ZM32.5 6.00023C32.6307 6.00116 32.7604 5.97625 32.8815 5.92695C33.0026 5.87765 33.1127 5.80492 33.2056 5.71294C33.2985 5.62095 33.3724 5.51153 33.4229 5.39094C33.4734 5.27035 33.4996 5.14098 33.5 5.01023V0.990234C33.5 0.725018 33.3946 0.470664 33.2071 0.283128C33.0196 0.0955914 32.7652 -0.00976562 32.5 -0.00976562C32.2348 -0.00976562 31.9804 0.0955914 31.7929 0.283128C31.6054 0.470664 31.5 0.725018 31.5 0.990234V5.01023C31.5026 5.27371 31.6092 5.52551 31.7964 5.71089C31.9837 5.89627 32.2365 6.00025 32.5 6.00023ZM42.002 2.00023H36.5C36.2348 2.00023 35.9804 2.10559 35.7929 2.29313C35.6054 2.48066 35.5 2.73502 35.5 3.00023C35.5 3.26545 35.6054 3.5198 35.7929 3.70734C35.9804 3.89488 36.2348 4.00023 36.5 4.00023H42.003C42.2655 4.0001 42.5255 4.05177 42.7681 4.15227C43.0106 4.25277 43.2309 4.40013 43.4165 4.58591C43.602 4.77169 43.749 4.99225 43.8491 5.23494C43.9493 5.47763 44.0005 5.7377 44 6.00023V36.0002C44 36.5303 43.7896 37.0387 43.4149 37.4137C43.0403 37.7888 42.5321 37.9997 42.002 38.0002H41C40.7348 38.0002 40.4804 38.1056 40.2929 38.2931C40.1054 38.4807 40 38.735 40 39.0002C40 39.2655 40.1054 39.5198 40.2929 39.7073C40.4804 39.8949 40.7348 40.0002 41 40.0002H42.003C43.0633 39.9994 44.08 39.5777 44.8295 38.8276C45.579 38.0775 46 37.0606 46 36.0002V6.00023C46.0005 5.47497 45.8975 4.95475 45.6968 4.46934C45.4961 3.98393 45.2016 3.54285 44.8303 3.17134C44.459 2.79983 44.0181 2.50517 43.5327 2.30422C43.0474 2.10327 42.5273 1.99997 42.002 2.00023ZM36 39.0002C36 39.2655 36.1054 39.5198 36.2929 39.7073C36.4804 39.8949 36.7348 40.0002 37 40.0002C37.2652 40.0002 37.5196 39.8949 37.7071 39.7073C37.8946 39.5198 38 39.2655 38 39.0002C38 38.735 37.8946 38.4807 37.7071 38.2931C37.5196 38.1056 37.2652 38.0002 37 38.0002C36.7348 38.0002 36.4804 38.1056 36.2929 38.2931C36.1054 38.4807 36 38.735 36 39.0002ZM33.001 38.0002H3.998C3.73542 38.0004 3.47538 37.9487 3.23278 37.8482C2.99018 37.7477 2.76978 37.6004 2.5842 37.4146C2.39862 37.2289 2.25149 37.0083 2.15125 36.7656C2.051 36.5229 1.99961 36.2628 2 36.0002V6.00023C2 5.47015 2.21044 4.96174 2.58508 4.58673C2.95972 4.21171 3.46792 4.00076 3.998 4.00023H10.5C10.7652 4.00023 11.0196 3.89488 11.2071 3.70734C11.3946 3.5198 11.5 3.26545 11.5 3.00023C11.5 2.73502 11.3946 2.48066 11.2071 2.29313C11.0196 2.10559 10.7652 2.00023 10.5 2.00023H3.998C2.93748 2.00076 1.92058 2.42243 1.17087 3.17251C0.421155 3.9226 1.87012e-06 4.93971 2.00268e-06 6.00023V36.0002C-0.000523856 36.5255 0.102514 37.0457 0.303222 37.5311C0.503929 38.0165 0.798368 38.4576 1.1697 38.8291C1.54102 39.2006 1.98195 39.4953 2.46726 39.6963C2.95257 39.8972 3.47273 40.0005 3.998 40.0002H33C33.2652 40.0002 33.5196 39.8949 33.7071 39.7073C33.8946 39.5198 34 39.2655 34 39.0002C34 38.735 33.8946 38.4807 33.7071 38.2931C33.5196 38.1056 33.2662 38.0002 33.001 38.0002ZM26 13.0002C26 13.5307 26.2107 14.0394 26.5858 14.4144C26.9609 14.7895 27.4696 15.0002 28 15.0002C28.5304 15.0002 29.0391 14.7895 29.4142 14.4144C29.7893 14.0394 30 13.5307 30 13.0002C30 12.4698 29.7893 11.9611 29.4142 11.586C29.0391 11.2109 28.5304 11.0002 28 11.0002C27.4696 11.0002 26.9609 11.2109 26.5858 11.586C26.2107 11.9611 26 12.4698 26 13.0002ZM35 13.0002C35 13.5307 35.2107 14.0394 35.5858 14.4144C35.9609 14.7895 36.4696 15.0002 37 15.0002C37.5304 15.0002 38.0391 14.7895 38.4142 14.4144C38.7893 14.0394 39 13.5307 39 13.0002C39 12.4698 38.7893 11.9611 38.4142 11.586C38.0391 11.2109 37.5304 11.0002 37 11.0002C36.4696 11.0002 35.9609 11.2109 35.5858 11.586C35.2107 11.9611 35 12.4698 35 13.0002ZM17 21.0002C17 21.5307 17.2107 22.0394 17.5858 22.4144C17.9609 22.7895 18.4696 23.0002 19 23.0002C19.5304 23.0002 20.0391 22.7895 20.4142 22.4144C20.7893 22.0394 21 21.5307 21 21.0002C21 20.4698 20.7893 19.9611 20.4142 19.586C20.0391 19.2109 19.5304 19.0002 19 19.0002C18.4696 19.0002 17.9609 19.2109 17.5858 19.586C17.2107 19.9611 17 20.4698 17 21.0002ZM8 21.0002C8 21.5307 8.21072 22.0394 8.58579 22.4144C8.96086 22.7895 9.46957 23.0002 10 23.0002C10.5304 23.0002 11.0391 22.7895 11.4142 22.4144C11.7893 22.0394 12 21.5307 12 21.0002C12 20.4698 11.7893 19.9611 11.4142 19.586C11.0391 19.2109 10.5304 19.0002 10 19.0002C9.46957 19.0002 8.96086 19.2109 8.58579 19.586C8.21072 19.9611 8 20.4698 8 21.0002ZM24 21.0002C24 21.7914 24.2346 22.5647 24.6741 23.2225C25.1136 23.8803 25.7384 24.393 26.4693 24.6958C27.2002 24.9985 28.0044 25.0777 28.7804 24.9234C29.5563 24.769 30.269 24.3881 30.8284 23.8287C31.3878 23.2693 31.7688 22.5565 31.9231 21.7806C32.0775 21.0047 31.9983 20.2004 31.6955 19.4695C31.3928 18.7386 30.8801 18.1139 30.2223 17.6744C29.5645 17.2348 28.7911 17.0002 28 17.0002C26.9391 17.0002 25.9217 17.4217 25.1716 18.1718C24.4214 18.922 24 19.9394 24 21.0002ZM30 21.0002C30 21.3958 29.8827 21.7825 29.6629 22.1114C29.4432 22.4403 29.1308 22.6966 28.7654 22.848C28.3999 22.9994 27.9978 23.039 27.6098 22.9618C27.2219 22.8846 26.8655 22.6942 26.5858 22.4144C26.3061 22.1347 26.1156 21.7784 26.0384 21.3904C25.9613 21.0025 26.0009 20.6003 26.1522 20.2349C26.3036 19.8694 26.56 19.5571 26.8889 19.3373C27.2178 19.1175 27.6044 19.0002 28 19.0002C28.5304 19.0002 29.0391 19.2109 29.4142 19.586C29.7893 19.9611 30 20.4698 30 21.0002ZM35 21.0002C35 21.5307 35.2107 22.0394 35.5858 22.4144C35.9609 22.7895 36.4696 23.0002 37 23.0002C37.5304 23.0002 38.0391 22.7895 38.4142 22.4144C38.7893 22.0394 39 21.5307 39 21.0002C39 20.4698 38.7893 19.9611 38.4142 19.586C38.0391 19.2109 37.5304 19.0002 37 19.0002C36.4696 19.0002 35.9609 19.2109 35.5858 19.586C35.2107 19.9611 35 20.4698 35 21.0002ZM17 29.0002C17 29.5307 17.2107 30.0394 17.5858 30.4144C17.9609 30.7895 18.4696 31.0002 19 31.0002C19.5304 31.0002 20.0391 30.7895 20.4142 30.4144C20.7893 30.0394 21 29.5307 21 29.0002C21 28.4698 20.7893 27.9611 20.4142 27.586C20.0391 27.2109 19.5304 27.0002 19 27.0002C18.4696 27.0002 17.9609 27.2109 17.5858 27.586C17.2107 27.9611 17 28.4698 17 29.0002ZM8 29.0002C8 29.5307 8.21072 30.0394 8.58579 30.4144C8.96086 30.7895 9.46957 31.0002 10 31.0002C10.5304 31.0002 11.0391 30.7895 11.4142 30.4144C11.7893 30.0394 12 29.5307 12 29.0002C12 28.4698 11.7893 27.9611 11.4142 27.586C11.0391 27.2109 10.5304 27.0002 10 27.0002C9.46957 27.0002 8.96086 27.2109 8.58579 27.586C8.21072 27.9611 8 28.4698 8 29.0002Z" fill="black"/>
</svg>
