<svg width="42" height="46" viewBox="0 0 42 46" fill="none" xmlns="http://www.w3.org/2000/svg">
<path d="M1 33C1.6 33 2 32.6 2 32V17C2 16.4 2.4 16 2.9 16H35.2C35.7 16 36.1 16.4 36.1 17V21C36.1 21.6 36.6 22 37.1 22C37.7 22 38.1 21.6 38.1 21V17C38.1 15.3 36.9 14 35.5 14H19C19 11.2 16.8 9 14 9C11.2 9 9 11.2 9 14H2.6C1.2 14 0 15.3 0 17V32C0 32.6 0.5 33 1 33ZM14 11C15.7 11 17 12.3 17 14H11C11 12.3 12.3 11 14 11ZM0 36C0 36.2652 0.105357 36.5196 0.292893 36.7071C0.48043 36.8946 0.734784 37 1 37C1.26522 37 1.51957 36.8946 1.70711 36.7071C1.89464 36.5196 2 36.2652 2 36C2 35.7348 1.89464 35.4804 1.70711 35.2929C1.51957 35.1054 1.26522 35 1 35C0.734784 35 0.48043 35.1054 0.292893 35.2929C0.105357 35.4804 0 35.7348 0 36ZM37 38C36.4 38 36 38.4 36 39V43C36 43.6 35.6 44 35.1 44H2.9C2.4 44 2 43.6 2 43V40C2 39.4 1.5 39 1 39C0.4 39 0 39.4 0 40V43C0 44.7 1.2 46 2.6 46H35.4C36.8 46 38 44.7 38 43V39C38 38.4 37.5 38 37 38ZM32 24C28.7 24 26 26.7 26 30C26 33.3 28.7 36 32 36H42V24H32ZM40 34H32C29.8 34 28 32.2 28 30C28 27.8 29.8 26 32 26H40V34ZM30.5 30C30.5 30.3978 30.658 30.7794 30.9393 31.0607C31.2206 31.342 31.6022 31.5 32 31.5C32.3978 31.5 32.7794 31.342 33.0607 31.0607C33.342 30.7794 33.5 30.3978 33.5 30C33.5 29.6022 33.342 29.2206 33.0607 28.9393C32.7794 28.658 32.3978 28.5 32 28.5C31.6022 28.5 31.2206 28.658 30.9393 28.9393C30.658 29.2206 30.5 29.6022 30.5 30ZM26 10C28.8 10 31 7.8 31 5C31 2.2 28.8 0 26 0C23.2 0 21 2.2 21 5C21 7.8 23.2 10 26 10ZM26 2C27.7 2 29 3.3 29 5C29 6.7 27.7 8 26 8C24.3 8 23 6.7 23 5C23 3.3 24.3 2 26 2Z" fill="black"/>
</svg>
